# xmcd
#
# Track frame offsets:
#	150
#	32079
#	49539
#	65662
#	81429
#	99720
#	122135
#	139751
#	152131
#	168846
#	182653
#	200216
#	216848
#	229518
#	248865
#	275307
#
# Disc length: 3683 seconds
#
# Revision: 4
# Processed by: cddbd v1.5.2PL0 Copyright (c) Steve Scherf et al.
# Submitted via: audiograbber 1.83.01
#
DISCID=e60e6110
DTITLE=Garth Brooks - SC8162 Hits Of Gartg Brooks Vol. 01
DYEAR=1900
DGENRE=Karaoke
TTITLE0=Friends In Low Places ( Live Version ) 
TTITLE1=If Tomorrow Never Comes
TTITLE2=What She's Doing Now
TTITLE3=The Dance
TTITLE4=Shameless
TTITLE5=That Summer
TTITLE6=The Thunder Rolls
TTITLE7=Two Of A Kind, Working On A Full House
TTITLE8=Unanswered Prayers
TTITLE9=Papa Loved Mama
TTITLE10=The River
TTITLE11=Rodeo
TTITLE12=Not Counting You
TTITLE13=Learing To Live Again
TTITLE14=Somewhere Other Then The Night
TTITLE15=DATA
EXTD=SpotLight Series - Hits of Garth Brooks- Vol.1
EXTT0=
EXTT1=
EXTT2=
EXTT3=
EXTT4=
EXTT5=
EXTT6=
EXTT7=
EXTT8=
EXTT9=
EXTT10=
EXTT11=
EXTT12=
EXTT13=
EXTT14=
EXTT15=
PLAYORDER=
